<svg xmlns="http://www.w3.org/2000/svg" viewBox="0 0 504.1 504.1"><path d="M232.4 313.9c0-52.8-52-95.3-116.2-95.3S0 261.1 0 313.9s52 93.7 116.2 93.7c5.5 0 11-.4 16.5-1.2 24 18.9 48.4 25.2 48.8 24.8-8.7-8.7-13.8-20.1-16.9-30.7 40.2-15.3 67.8-48 67.8-86.6z" fill="#ffa02c"/><path d="M137.8 297.3c-8.7 0-15.8 7.1-15.8 15.8s7.1 15.8 15.8 15.8 15.8-7.1 15.8-15.8-7.1-15.8-15.8-15.8zm-51.2 0c-8.7 0-15.8 7.1-15.8 15.8s7.1 15.8 15.8 15.8 15.8-7.1 15.8-15.8-7.1-15.8-15.8-15.8z" fill="#faeecf"/><path d="M334.8 348.9c-8.7 0-17.3-.4-25.6-1.6-33.9 25.2-67 33.5-67.3 32.7 11.4-11.8 18.9-26.8 23.6-41.7-59.1-21.7-100-70.1-100-126.4 0-76.8 76-139 169.4-139s169.4 62.2 169.4 139-76.2 137-169.5 137z" fill="#ff5b1a"/><path d="M334.8 187.1c-13 0-23.6 10.6-23.6 23.6s10.6 23.6 23.6 23.6 23.6-10.6 23.6-23.6-10.6-23.6-23.6-23.6zm70.9 0c-13 0-23.6 10.6-23.6 23.6s10.6 23.6 23.6 23.6 23.6-10.6 23.6-23.6-10.6-23.6-23.6-23.6zm-141.8 0c-13 0-23.6 10.6-23.6 23.6s10.6 23.6 23.6 23.6c13 0 23.6-10.6 23.6-23.6s-10.6-23.6-23.6-23.6z" fill="#fff"/><path d="M280.8 330.4c-58.7-21.7-99.6-70.1-99.6-126.4 0-47.7 29.1-89.4 73.6-114.6-53.2 23.2-89.4 69.3-89.4 122.5 0 56.3 41 104.8 99.6 126.4-4.7 14.6-11.8 29.5-23.6 41.7.4.4 25.6-18.1 39.4-49.6z" fill="#db461d"/><path d="M15.8 313.9c0-50.4 47.7-91.8 108.3-94.9l-7.9-.4C52 218.6 0 261.1 0 313.9s52 93.7 116.2 93.7c2.4 0 4.7 0 7.5-.4-60.3-3.5-107.9-42.9-107.9-93.3z" fill="#ea8d28"/></svg>